# AST/ASF file generated using VICON BodyLanguage
# -----------------------------------------------
:version 1.10
:name VICON
:units
  mass 1.0
  length 0.45
  angle deg
:documentation
   .ast/.asf automatically generated from VICON data using
   VICON BodyBuilder and BodyLanguage model FoxedUp or BRILLIANT.MOD
:root
   order TX TY TZ RX RY RZ
   axis XYZ
   position 0 0 0  
   orientation 0 0 0 
:bonedata
  begin
     id 1 
     name lhipjoint
     direction 0.521452 -0.77106 0.36545 
     length 2.0933 
     axis 0 0 0  XYZ
  end
  begin
     id 2 
     name lfemur
     direction 0.34202 -0.939693 0  
     length 6.83441  
     axis 0 0 20  XYZ
    dof rx ry rz
    limits (-160.0 20.0)
           (-70.0 70.0)
           (-60.0 70.0)
  end
  begin
     id 3 
     name ltibia
     direction 0.34202 -0.939693 0   
     length 7.28749   
     axis 0 0 20   XYZ
    dof rx
    limits (-10.0 170.0)
  end
  begin
     id 4 
     name lfoot
     direction 0.100608 -0.276418 0.955757   
     length 1.52195   
     axis -90 7.62852e-016 20   XYZ
    dof rx rz
    limits (-45.0 90.0)
           (-70.0 20.0)
  end
  begin
     id 5 
     name ltoes
     direction 1.53558e-011 -4.21907e-011 1   
     length 0.770459   
     axis -90 7.62852e-016 20   XYZ
    dof rx
    limits (-90.0 20.0)
  end
  begin
     id 6 
     name rhipjoint
     direction -0.488071 -0.788702 0.373812   
     length 2.04648  
     axis 0 0 0  XYZ 
  end
  begin
     id 7 
     name rfemur
     direction -0.34202 -0.939693 0   
     length 6.92583   
     axis 0 0 -20   XYZ
    dof rx ry rz
    limits (-160.0 20.0)
           (-70.0 70.0)
           (-70.0 60.0)
  end
  begin
     id 8 
     name rtibia
     direction -0.34202 -0.939693 0   
     length 7.41043   
     axis 0 0 -20   XYZ
    dof rx
    limits (-10.0 170.0)
 end
 begin
     id 9 
     name rfoot
     direction -0.0784433 -0.215521 0.973343   
     length 1.67708  
     axis -90 -7.62852e-016 -20   XYZ
    dof rx rz
    limits (-45.0 90.0)
           (-20.0 70.0)
  end
  begin
     id 10 
     name rtoes
     direction -1.53551e-011 -4.21842e-011 1   
     length 0.849787   
     axis -90 -7.62852e-016 -20   XYZ
    dof rx
    limits (-90.0 20.0)
  end
  begin
     id 11 
     name lowerback
     direction -0.0122332 0.997575 -0.0685192   
     length 1.98724   
     axis 0 0 0   XYZ
    dof rx ry rz
    limits (-20.0 45.0)
           (-30.0 30.0)
           (-30.0 30.0)
  end
  begin
     id 12 
     name upperback
     direction 0.0182347 0.999724 -0.0148421   
     length 1.99029   
     axis 0 0 0   XYZ
    dof rx ry rz
    limits (-20.0 45.0)
           (-30.0 30.0)
           (-30.0 30.0)
  end
  begin
     id 13 
     name thorax
     direction 0.0242908 0.99956 0.0170184   
     length 1.99573   
     axis 0 0 0   XYZ
    dof rx ry rz
    limits (-20.0 45.0)
           (-30.0 30.0)
           (-30.0 30.0)
  end
  begin
     id 14 
     name lowerneck
     direction 0.0654488 0.985533 0.156338   
     length 1.4285   
     axis 0 0 0   XYZ
    dof rx ry rz
    limits (-20.0 45.0)
           (-30.0 30.0)
           (-30.0 30.0)
  end
  begin
     id 15 
     name upperneck
     direction -0.02953 0.998556 -0.0448842   
     length 1.44709   
     axis 0 0 0   XYZ
    dof rx ry rz
    limits (-20.0 45.0)
           (-30.0 30.0)
           (-30.0 30.0)
  end
  begin
     id 16
     name head
     direction -0.0155588 0.999386 -0.0314063  
     length 1.44689  
     axis 0 0 0   XYZ
    dof rx ry rz
    limits (-20.0 45.0)
           (-30.0 30.0)
           (-30.0 30.0)
  end
  begin
     id 17 
     name lclavicle
     direction 0.968229 0.236071 -0.0824755  
     length 3.60593  
     axis 0 0 0   XYZ
    dof ry rz
    limits (-20.0 10.0)
           (0.0 20.0)
  end
  begin
     id 18 
     name lhumerus
     direction 1 -4.48968e-011 7.8138e-029   
     length 5.06035   
     axis 180 -30 -90   XYZ
    dof rx ry rz
    limits (-60.0 90.0)
           (-90.0 90.0)
           (-90.0 90.0)
  end
  begin
     id 19
     name lradius
     direction 1 -4.48967e-011 9.02887e-028   
     length 3.1478   
     axis 180 -30 -90   XYZ
    dof rx
    limits (-10.0 170.0)
  end
  begin
     id 20
     name lwrist
     direction 1 -4.48961e-011 7.20928e-028   
     length 1.5739   
     axis -5.52449e-016 90 90   XYZ
    dof ry
    limits (-180.0 0.0)
 end
  begin
     id 21 
     name lhand
     direction 1 -4.48972e-011 1.44186e-027   
     length 0.606747   
     axis -9.20027e-016 90 90   XYZ
    dof rx rz
    limits (-90.0 90.0)
           (-45.0 45.0)
  end
  begin
     id 22 
     name lfingers
     direction 1 -4.48943e-011 2.88371e-027   
     length 0.489175   
     axis -1.84005e-015 90 90   XYZ
    dof rx
    limits (0.0 90.0)
  end
  begin
     id 23
     name lthumb
     direction 0.707107 -6.34917e-011 0.707107   
     length 0.70236   
     axis -90 45 2.85299e-015   XYZ
    dof rx rz
    limits (-45.0 45.0)
           (-45.0 45.0)
  end
  begin
     id 24 
     name rclavicle
     direction -0.978165 0.207816 0.0022268   
     length 3.35425  
     axis 0 0 0   XYZ 
    dof ry rz
    limits (-10.0 20.0)
           (-20.0 0.0)
  end
  begin
     id 25 
     name rhumerus
     direction -1 -4.48964e-011 -4.02159e-027  
     length 5.12273   
     axis 180 30 90   XYZ
    dof rx ry rz
    limits (-90.0 60.0)
           (-90.0 90.0)
           (-90.0 90.0)
  end
  begin
     id 26 
     name rradius
     direction -1 -4.48966e-011 1.62746e-027   
     length 3.422   
     axis 180 30 90   XYZ
    dof rx
    limits (-10.0 170.0)
  end
  begin
     id 27 
     name rwrist
     direction -1 -4.4896e-011 7.20928e-028   
     length 1.711   
     axis -5.52449e-016 -90 -90   XYZ
    dof ry
    limits (-180.0 0.0)
  end
  begin
     id 28
     name rhand
     direction -1 -4.48979e-011 1.44186e-027   
     length 0.704599   
     axis -9.20027e-016 -90 -90   XYZ
    dof rx rz
    limits (-90.0 90.0)
           (-45.0 45.0)
  end
  begin
     id 29
     name rfingers
     direction -1 -4.48962e-011 2.88371e-027   
     length 0.568066   
     axis -1.84005e-015 -90 -90   XYZ
    dof rx
    limits (0.0 90.0)
  end
  begin
     id 30
     name rthumb
     direction -0.707107 -6.34949e-011 0.707107   
     length 0.815633   
     axis -90 -45 -2.85299e-015   XYZ
    dof rx rz
    limits (-45.0 45.0)
           (-45.0 45.0)
  end
:hierarchy
  begin
    root lhipjoint rhipjoint lowerback
    lhipjoint lfemur
    lfemur ltibia
    ltibia lfoot
    lfoot ltoes
    rhipjoint rfemur
    rfemur rtibia
    rtibia rfoot
    rfoot rtoes
    lowerback upperback
    upperback thorax
    thorax lowerneck lclavicle rclavicle
    lowerneck upperneck
    upperneck head
    lclavicle lhumerus
    lhumerus lradius
    lradius lwrist
    lwrist lhand lthumb
    lhand lfingers
    rclavicle rhumerus
    rhumerus rradius
    rradius rwrist
    rwrist rhand rthumb
    rhand rfingers
  end

#!OML:ASF E:\id_vita\Project 1\Capture day 1\Session 1\Male1.ASF
:FULLY-SPECIFIED
:DEGREES
622
root 2.4137 27.6325 -1.86521 -11.7119 81.8393 -33.2697
lowerback 4.43772 1.89261 -4.39904
upperback 6.18101 2.60684 0.0660254
thorax 3.71834 1.18487 2.49941
lowerneck 1.65462 2.05751 8.779
upperneck -17.9557 3.39147 -3.26286
head -5.49256 1.50953 -2.67624
rclavicle 1.11319e-014 -5.1684e-014
rhumerus 41.7152 9.34805 -66.8383
rradius 118.896
rwrist -5.90407
rhand -28.7224 43.5396
rfingers 7.12502
rthumb -2.08363 13.57
lclavicle 1.11319e-014 -5.1684e-014
lhumerus 46.9917 -9.84778 58.7089
lradius 122.117
lwrist 4.15769
lhand -29.9862 45.0738
lfingers 7.12502
lthumb -3.30411 75.0279
rfemur -12.7503 0.00177969 17.2321
rtibia 13.1548
rfoot -11.2692 -6.99259
rtoes -9.77923
lfemur -36.5942 3.73115 -19.6923
ltibia 29.8363
lfoot -16.7872 -3.45633
ltoes -1.45366
623
root 2.4139 27.632 -1.86816 -11.2833 81.8214 -32.8737
lowerback 4.19135 1.90805 -4.44552
upperback 6.34384 2.64932 0.0746962
thorax 4.02329 1.19604 2.54718
lowerneck 0.86482 2.19548 8.76885
upperneck -17.9171 3.48332 -3.52255
head -5.33376 1.58083 -2.74587
rclavicle -5.56597e-015 1.59028e-015
rhumerus 41.9636 9.22352 -66.7985
rradius 118.853
rwrist -6.00879
rhand -28.7162 43.4568
rfingers 7.12502
rthumb -2.07763 13.4872
lclavicle -5.56597e-015 1.59028e-015
lhumerus 47.3037 -9.72276 58.7152
lradius 122.245
lwrist 4.14901
lhand -29.4714 45.4424
lfingers 7.12502
lthumb -2.80693 75.4037
rfemur -12.7843 -0.0619123 17.1731
rtibia 13.1306
rfoot -11.2944 -6.93506
rtoes -9.72653
lfemur -36.6311 3.80541 -19.7859
ltibia 29.8493
lfoot -16.8032 -3.47102
ltoes -1.34291
624
root 2.41379 27.6326 -1.8688 -11.1076 81.7863 -32.7317
lowerback 4.04109 1.92082 -4.44824
upperback 6.43091 2.68024 0.0514371
thorax 4.19843 1.20733 2.53232
lowerneck 0.913992 2.21263 8.5558
upperneck -17.9577 3.53211 -3.31993
head -5.3601 1.60532 -2.6509
rclavicle -1.23246e-014 1.78906e-014
rhumerus 42.0417 9.16482 -66.8408
rradius 118.799
rwrist -6.07407
rhand -28.7399 43.4942
rfingers 7.12502
rthumb -2.10048 13.5248
lclavicle -1.23246e-014 1.78906e-014
lhumerus 47.5974 -9.61812 58.6654
lradius 122.34
lwrist 4.24855
lhand -28.8257 46.0311
lfingers 7.12502
lthumb -2.18338 75.9997
rfemur -12.8075 -0.0480707 17.1593
rtibia 13.1159
rfoot -11.3166 -6.91901
rtoes -9.7299
lfemur -36.672 3.81996 -19.7901
ltibia 29.8578
lfoot -16.8293 -3.45872
ltoes -0.90048
625
root 2.41465 27.633 -1.86881 -11.4306 81.8214 -33.0352
lowerback 4.02112 1.92467 -4.3974
upperback 6.516 2.69418 0.0274963
thorax 4.30148 1.21499 2.48204
lowerneck 0.743183 2.20027 8.77271
upperneck -17.9894 3.49529 -3.47309
head -5.33667 1.58494 -2.73114
rclavicle 3.97569e-016 2.90226e-014
rhumerus 42.198 9.10343 -66.807
rradius 118.748
rwrist -5.95671
rhand -28.7342 43.4739
rfingers 7.12502
rthumb -2.09497 13.5044
lclavicle 3.97569e-016 2.90226e-014
lhumerus 47.8078 -9.57347 58.6091
lradius 122.317
lwrist 4.26806
lhand -28.785 46.1775
lfingers 7.12502
lthumb -2.14405 76.1464
rfemur -12.7642 0.043442 17.1877
rtibia 13.1002
rfoot -11.3113 -7.02928
rtoes -9.71198
lfemur -36.6587 3.77029 -19.7466
ltibia 29.8658
lfoot -16.7916 -3.48868
ltoes -0.827753
626
root 2.41512 27.6326 -1.87066 -11.6694 81.8482 -33.2478
lowerback 4.03244 1.8377 -4.41916
upperback 6.45554 2.57159 0.078807
thorax 4.23729 1.15298 2.54657
lowerneck 1.1593 2.2585 8.57576
upperneck -18.0891 3.61361 -3.35647
head -5.43645 1.64384 -2.67642
rclavicle -4.37326e-015 7.15625e-015
rhumerus 42.2144 9.40555 -66.7413
rradius 118.714
rwrist -5.87841
rhand -28.7289 43.4428
rfingers 7.12502
rthumb -2.08985 13.4733
lclavicle -4.37326e-015 7.15625e-015
lhumerus 47.4675 -9.40023 58.687
lradius 122.337
lwrist 4.23707
lhand -28.713 46.1019
lfingers 7.12502
lthumb -2.07458 76.0715
rfemur -12.7071 0.0469252 17.2079
rtibia 13.0659
rfoot -11.3179 -7.02856
rtoes -9.41298
lfemur -36.6398 3.79655 -19.752
ltibia 29.8792
lfoot -16.7557 -3.58556
ltoes -1.11766
627
root 2.41369 27.6328 -1.87406 -11.7722 81.7863 -33.3787
lowerback 4.13204 1.87378 -4.32315
upperback 6.44094 2.61741 0.00818958
thorax 4.16863 1.18391 2.41526
lowerneck 0.722473 2.27399 8.97836
upperneck -18.0843 3.60305 -3.545
head -5.35183 1.6299 -2.79381
rclavicle -1.98785e-015 3.97569e-015
rhumerus 42.2074 9.33062 -66.7965
rradius 118.759
rwrist -5.71912
rhand -28.719 43.4535
rfingers 7.12502
rthumb -2.08031 13.4839
lclavicle -1.98785e-015 3.97569e-015
lhumerus 47.5228 -9.40732 58.6164
lradius 122.419
lwrist 4.21261
lhand -35.3194 41.847
lfingers 7.12502
lthumb -8.45304 71.6578
rfemur -12.7201 -0.019603 17.2488
rtibia 13.0174
rfoot -11.2818 -6.91751
rtoes -9.50373
lfemur -36.6729 3.73408 -19.6806
ltibia 29.9013
lfoot -16.8016 -3.47998
ltoes -1.24319
628
root 2.41212 27.6324 -1.87603 -12.1477 81.7248 -33.7385
lowerback 4.38319 1.87374 -4.21112
upperback 6.26088 2.59512 -0.0109382
thorax 3.84356 1.18586 2.31927
lowerneck 1.05923 2.29006 8.86887
upperneck -18.0039 3.65846 -3.41054
head -5.38519 1.65249 -2.73973
rclavicle 7.95139e-015 -3.97569e-015
rhumerus 42.0467 9.52972 -66.8741
rradius 118.786
rwrist -5.48349
rhand -28.6981 43.3988
rfingers 7.12502
rthumb -2.06016 13.429
lclavicle 7.95139e-015 -3.97569e-015
lhumerus 47.2359 -9.49815 58.6077
lradius 122.484
lwrist 4.16321
lhand -28.1905 46.2989
lfingers 7.12502
lthumb -1.56992 76.2729
rfemur -12.6898 -0.0230501 17.3346
rtibia 12.9537
rfoot -11.1534 -6.98586
rtoes -10.3153
lfemur -36.6641 3.59509 -19.5388
ltibia 29.935
lfoot -16.8228 -3.27314
ltoes -1.15894
629
root 2.41247 27.6322 -1.87633 -12.3927 81.7328 -33.8987
lowerback 4.27147 1.88414 -4.22785
upperback 6.42675 2.62396 0.0427983
thorax 4.07635 1.19306 2.39214
lowerneck 0.835829 2.29585 8.94471
upperneck -17.9901 3.62894 -3.57038
head -5.33931 1.64557 -2.79695
rclavicle 5.1684e-015 -1.35174e-014
rhumerus 42.3162 9.47859 -66.7191
rradius 118.788
rwrist -5.37418
rhand -28.6933 43.337
rfingers 7.12502
rthumb -2.05551 13.3671
lclavicle 5.1684e-015 -1.35174e-014
lhumerus 47.4959 -9.42384 58.697
lradius 122.402
lwrist 4.14129
lhand -32.9094 43.3401
lfingers 7.12502
lthumb -6.12675 73.2315
rfemur -12.5621 -0.0293752 17.3628
rtibia 12.8782
rfoot -11.1066 -7.03428
rtoes -10.4839
lfemur -36.5945 3.64255 -19.5401
ltibia 29.972
lfoot -16.8146 -3.30241
ltoes -1.05915
630
root 2.41322 27.6326 -1.87616 -12.6266 81.7283 -34.1031
lowerback 4.23077 1.9354 -4.18239
upperback 6.37413 2.69093 0.029183
thorax 4.04105 1.22917 2.35201
lowerneck 1.18599 2.26396 8.93327
upperneck -18.1399 3.63584 -3.46375
head -5.44837 1.63938 -2.7718
rclavicle 1.55052e-014 2.98177e-014
rhumerus 42.0661 9.44978 -66.6961
rradius 118.863
rwrist -5.44265
rhand -28.7086 43.2996
rfingers 7.12502
rthumb -2.07033 13.3299
lclavicle 1.55052e-014 2.98177e-014
lhumerus 47.5342 -9.6284 58.7436
lradius 122.351
lwrist 4.23826
lhand -32.7297 43.4718
lfingers 7.12502
lthumb -5.95328 73.3682
rfemur -12.4922 -0.028976 17.3917
rtibia 12.8295
rfoot -11.1466 -6.97185
rtoes -9.87381
lfemur -36.5778 3.80394 -19.57
ltibia 29.9995
lfoot -16.8246 -3.4521
ltoes -0.874515
631
root 2.41264 27.6326 -1.87579 -12.8257 81.6856 -34.3242
lowerback 4.24865 1.97303 -4.10765
upperback 6.27971 2.73501 0.00290252
thorax 3.93214 1.25707 2.27936
lowerneck 1.18382 2.28924 8.95766
upperneck -17.8536 3.6353 -3.58812
head -5.35411 1.64661 -2.80783
rclavicle 3.65764e-014 -2.38542e-015
rhumerus 41.863 9.49601 -66.7383
rradius 118.89
rwrist -5.46054
rhand -28.7234 43.2883
rfingers 7.12502
rthumb -2.08458 13.3187
lclavicle 3.65764e-014 -2.38542e-015
lhumerus 47.4141 -9.80472 58.7341
lradius 122.416
lwrist 4.24803
lhand -27.5815 46.8008
lfingers 7.12502
lthumb -0.981692 76.7783
rfemur -12.5166 0.0357006 17.4401
rtibia 12.8359
rfoot -11.2043 -6.97252
rtoes -9.01984
lfemur -36.6008 3.87789 -19.5336
ltibia 30.0057
lfoot -16.8099 -3.51951
ltoes -0.594921
632
root 2.41063 27.6327 -1.87752 -12.9029 81.6593 -34.4075
lowerback 4.30384 1.98679 -4.05644
upperback 6.23908 2.74891 -0.00409328
thorax 3.85955 1.26795 2.24011
lowerneck 1.32547 2.29942 8.8177
upperneck -18.046 3.68644 -3.43287
head -5.44153 1.66905 -2.74537
rclavicle -4.33351e-014 9.14409e-015
rhumerus 41.7771 9.528 -66.8302
rradius 118.901
rwrist -5.42419
rhand -28.7325 43.3263
rfingers 7.12502
rthumb -2.09337 13.3568
lclavicle -4.33351e-014 9.14409e-015
lhumerus 47.4617 -9.97474 58.7405
lradius 122.337
lwrist 4.07146
lhand -27.9246 46.3432
lfingers 7.12502
lthumb -1.31313 76.319
rfemur -12.5492 0.0354868 17.4719
rtibia 12.8518
rfoot -11.1765 -6.98825
rtoes -8.84019
lfemur -36.6091 3.80282 -19.4768
ltibia 30.0054
lfoot -16.8159 -3.43912
ltoes -0.711255
